<?xml version="1.0" encoding="utf-8"?>
<!-- Generator: Adobe Illustrator 16.0.0, SVG Export Plug-In . SVG Version: 6.00 Build 0)  -->
<!DOCTYPE svg PUBLIC "-//W3C//DTD SVG 1.1//EN" "http://www.w3.org/Graphics/SVG/1.1/DTD/svg11.dtd">
<svg version="1.1" id="Calque_1" xmlns="http://www.w3.org/2000/svg" xmlns:xlink="http://www.w3.org/1999/xlink" x="0px" y="0px"
	 width="500px" height="500px" viewBox="0 0 500 500" enable-background="new 0 0 500 500" xml:space="preserve">
<rect x="25.008" y="88.069" fill="#FFFFFF" stroke="#000000" stroke-width="2" stroke-linecap="round" stroke-miterlimit="10" width="31.925" height="31.924"/>
<polyline fill="#FFFFFF" stroke="#000000" stroke-width="2" stroke-linecap="round" stroke-miterlimit="10" points="40.971,77.489 
	40.971,82.78 40.971,88.069 "/>
<line fill="none" stroke="#000000" stroke-width="2" stroke-linecap="round" stroke-miterlimit="10" x1="40.971" y1="77.49" x2="169.04" y2="77.49"/>
<rect x="25.008" y="141.153" fill="#FFFFFF" stroke="#000000" stroke-width="2" stroke-linecap="round" stroke-miterlimit="10" width="31.925" height="31.924"/>
<polyline fill="#FFFFFF" stroke="#000000" stroke-width="2" stroke-linecap="round" stroke-miterlimit="10" points="40.971,119.994 
	40.971,130.573 40.971,141.153 "/>
<line fill="none" stroke="#000000" stroke-width="2" stroke-linecap="round" stroke-miterlimit="10" x1="40.971" y1="130.573" x2="83.661" y2="130.573"/>
<rect x="67.698" y="141.153" fill="#FFFFFF" stroke="#000000" stroke-width="2" stroke-linecap="round" stroke-miterlimit="10" width="31.926" height="31.924"/>
<polyline fill="#FFFFFF" stroke="#000000" stroke-width="2" stroke-linecap="round" stroke-miterlimit="10" points="83.661,130.573 
	83.661,135.863 83.661,141.153 "/>
<rect x="217.078" y="141.153" fill="#FFFFFF" stroke="#000000" stroke-width="2" stroke-linecap="round" stroke-miterlimit="10" width="31.924" height="31.924"/>
<polyline fill="#FFFFFF" stroke="#000000" stroke-width="2" stroke-linecap="round" stroke-miterlimit="10" points="233.04,119.994 
	233.04,130.573 233.04,141.153 "/>
<rect x="217.078" y="88.069" fill="#FFFFFF" stroke="#000000" stroke-width="2" stroke-linecap="round" stroke-miterlimit="10" width="31.924" height="31.924"/>
<polyline fill="#FFFFFF" stroke="#000000" stroke-width="2" stroke-linecap="round" stroke-miterlimit="10" points="233.04,77.49 
	233.04,82.779 233.04,88.069 "/>
<rect x="320.424" y="141.153" fill="#FFFFFF" stroke="#000000" stroke-width="2" stroke-linecap="round" stroke-miterlimit="10" width="31.926" height="31.924"/>
<polyline fill="#FFFFFF" stroke="#000000" stroke-width="2" stroke-linecap="round" stroke-miterlimit="10" points="
	336.387,130.573 336.387,135.863 336.387,141.153 "/>
<rect x="67.698" y="194.237" fill="#FFFFFF" stroke="#000000" stroke-width="2" stroke-linecap="round" stroke-miterlimit="10" width="31.926" height="31.924"/>
<polyline fill="#FFFFFF" stroke="#000000" stroke-width="2" stroke-linecap="round" stroke-miterlimit="10" points="83.661,173.077 
	83.661,183.657 83.661,194.237 "/>
<line fill="none" stroke="#000000" stroke-width="2" stroke-linecap="round" stroke-miterlimit="10" x1="83.661" y1="183.657" x2="126.35" y2="183.657"/>
<rect x="110.388" y="194.237" fill="#FFFFFF" stroke="#000000" stroke-width="2" stroke-linecap="round" stroke-miterlimit="10" width="31.924" height="31.924"/>
<polyline fill="#FFFFFF" stroke="#000000" stroke-width="2" stroke-linecap="round" stroke-miterlimit="10" points="126.35,183.657 
	126.35,188.947 126.35,194.237 "/>
<text transform="matrix(1 0 0 1 35.1521 107.8047)" font-family="'MyriadPro-Regular'" font-size="8.9092">DIV</text>
<text transform="matrix(1 0 0 1 35.031 161.5078)" font-family="'MyriadPro-Regular'" font-size="8.9092">H1</text>
<text transform="matrix(1 0 0 1 78.0945 161.5078)" font-family="'MyriadPro-Regular'" font-size="8.9092">DIV</text>
<text transform="matrix(1 0 0 1 227.2214 107.8047)" font-family="'MyriadPro-Regular'" font-size="8.9092">UL</text>
<text transform="matrix(1 0 0 1 229.4539 161.5078)" font-family="'MyriadPro-Regular'" font-size="8.9092">Li</text>
<text transform="matrix(1 0 0 1 334.5334 161.5078)" font-family="'MyriadPro-Regular'" font-size="8.9092">Li</text>
<line fill="none" stroke="#000000" stroke-width="2" stroke-linecap="round" stroke-miterlimit="10" x1="169.04" y1="77.49" x2="401.347" y2="77.49"/>
<rect x="364.967" y="141.153" fill="#FFFFFF" stroke="#000000" stroke-width="2" stroke-linecap="round" stroke-miterlimit="10" width="31.924" height="31.924"/>
<polyline fill="#FFFFFF" stroke="#000000" stroke-width="2" stroke-linecap="round" stroke-miterlimit="10" points="
	380.928,130.573 380.928,135.863 380.928,141.153 "/>
<polyline fill="#FFFFFF" stroke="#000000" stroke-width="2" stroke-linecap="round" stroke-miterlimit="10" points="
	401.347,119.994 401.347,125.284 401.347,130.573 "/>
<rect x="385.386" y="88.069" fill="#FFFFFF" stroke="#000000" stroke-width="2" stroke-linecap="round" stroke-miterlimit="10" width="31.924" height="31.924"/>
<polyline fill="#FFFFFF" stroke="#000000" stroke-width="2" stroke-linecap="round" stroke-miterlimit="10" points="401.347,77.49 
	401.347,82.779 401.347,88.069 "/>
<line fill="none" stroke="#000000" stroke-width="2" stroke-linecap="round" stroke-miterlimit="10" x1="336.387" y1="130.573" x2="423.618" y2="130.573"/>
<rect x="407.656" y="141.153" fill="#FFFFFF" stroke="#000000" stroke-width="2" stroke-linecap="round" stroke-miterlimit="10" width="31.924" height="31.924"/>
<polyline fill="#FFFFFF" stroke="#000000" stroke-width="2" stroke-linecap="round" stroke-miterlimit="10" points="
	423.618,130.573 423.618,135.863 423.618,141.153 "/>
<line fill="none" stroke="#000000" stroke-width="2" stroke-linecap="round" stroke-miterlimit="10" x1="423.618" y1="130.573" x2="466.309" y2="130.573"/>
<rect x="450.346" y="141.153" fill="#FFFFFF" stroke="#000000" stroke-width="2" stroke-linecap="round" stroke-miterlimit="10" width="31.926" height="31.924"/>
<polyline fill="#FFFFFF" stroke="#000000" stroke-width="2" stroke-linecap="round" stroke-miterlimit="10" points="
	466.309,130.573 466.309,135.863 466.309,141.153 "/>
<text transform="matrix(1 0 0 1 395.5276 107.8047)" font-family="'MyriadPro-Regular'" font-size="8.9092">DIV</text>
<text transform="matrix(1 0 0 1 369.8381 161.5078)" font-family="'MyriadPro-Regular'" font-size="8.9092">SPAN</text>
<text transform="matrix(1 0 0 1 456.9514 161.5078)" font-family="'MyriadPro-Regular'" font-size="8.9092">SPAN</text>
<text transform="matrix(1 0 0 1 412.9026 161.5078)" font-family="'MyriadPro-Regular'" font-size="8.9092">SPAN</text>
<text transform="matrix(1 0 0 1 78.0945 213.8496)" font-family="'MyriadPro-Regular'" font-size="8.9092">IMG</text>
<text transform="matrix(1 0 0 1 118.3113 213.8496)" font-family="'MyriadPro-Regular'" font-size="8.9092">IMG</text>
<rect x="153.078" y="236.741" fill="#FFFFFF" stroke="#000000" stroke-width="2" stroke-linecap="round" stroke-miterlimit="10" width="31.924" height="31.924"/>
<polyline fill="#FFFFFF" stroke="#000000" stroke-width="2" stroke-linecap="round" stroke-miterlimit="10" points="
	233.039,215.581 233.039,220.871 233.039,226.161 "/>
<polyline fill="#FFFFFF" stroke="#000000" stroke-width="2" stroke-linecap="round" stroke-miterlimit="10" points="
	169.039,226.161 169.039,231.451 169.039,236.741 "/>
<rect x="217.078" y="183.657" fill="#FFFFFF" stroke="#000000" stroke-width="2" stroke-linecap="round" stroke-miterlimit="10" width="31.924" height="31.924"/>
<polyline fill="#FFFFFF" stroke="#000000" stroke-width="2" stroke-linecap="round" stroke-miterlimit="10" points="
	233.039,173.077 233.039,178.367 233.039,183.657 "/>
<line fill="none" stroke="#000000" stroke-width="2" stroke-linecap="round" stroke-miterlimit="10" x1="169.039" y1="226.161" x2="211.73" y2="226.161"/>
<rect x="195.767" y="236.741" fill="#FFFFFF" stroke="#000000" stroke-width="2" stroke-linecap="round" stroke-miterlimit="10" width="31.925" height="31.924"/>
<polyline fill="#FFFFFF" stroke="#000000" stroke-width="2" stroke-linecap="round" stroke-miterlimit="10" points="211.73,226.161 
	211.73,231.452 211.73,236.741 "/>
<line fill="none" stroke="#000000" stroke-width="2" stroke-linecap="round" stroke-miterlimit="10" x1="211.73" y1="226.161" x2="254.419" y2="226.161"/>
<rect x="238.456" y="236.741" fill="#FFFFFF" stroke="#000000" stroke-width="2" stroke-linecap="round" stroke-miterlimit="10" width="31.927" height="31.924"/>
<polyline fill="#FFFFFF" stroke="#000000" stroke-width="2" stroke-linecap="round" stroke-miterlimit="10" points="
	254.419,226.161 254.419,231.452 254.419,236.741 "/>
<line fill="none" stroke="#000000" stroke-width="2" stroke-linecap="round" stroke-miterlimit="10" x1="254.42" y1="226.161" x2="297.108" y2="226.161"/>
<polyline fill="#FFFFFF" stroke="#000000" stroke-width="2" stroke-linecap="round" stroke-miterlimit="10" points="
	297.108,226.161 297.108,231.452 297.108,236.741 "/>
<text transform="matrix(1 0 0 1 227.2205 203.3926)" font-family="'MyriadPro-Regular'" font-size="8.9092">UL</text>
<text transform="matrix(1 0 0 1 165.4529 257.0957)" font-family="'MyriadPro-Regular'" font-size="8.9092">Li</text>
<text transform="matrix(1 0 0 1 252.5667 257.0957)" font-family="'MyriadPro-Regular'" font-size="8.9092">Li</text>
<text transform="matrix(1 0 0 1 208.5164 257.0957)" font-family="'MyriadPro-Regular'" font-size="8.9092">Li</text>
<rect x="281.146" y="236.741" fill="#FFFFFF" stroke="#000000" stroke-width="2" stroke-linecap="round" stroke-miterlimit="10" width="31.926" height="31.924"/>
<text transform="matrix(1 0 0 1 295.2581 257.0957)" font-family="'MyriadPro-Regular'" font-size="8.9092">Li</text>
<text transform="matrix(1 0 0 1 15.8757 26.2559)" font-family="'MyriadPro-Regular'" font-size="10.16">OBJECTIF 1 - AU CENTRE</text>
<text transform="matrix(1 0 0 1 15.8757 43.7559)" font-family="'MyriadPro-Regular'" font-size="10.16">DOM/BODY</text>
<g>
	<line fill="none" x1="25.008" y1="285" x2="373.036" y2="285"/>
	<g>
		
			<line fill="none" stroke="#000000" stroke-width="2" stroke-linecap="round" stroke-miterlimit="10" x1="25.008" y1="285" x2="31.008" y2="285"/>
		
			<line fill="none" stroke="#000000" stroke-width="2" stroke-linecap="round" stroke-miterlimit="10" stroke-dasharray="11.914,11.914" x1="42.922" y1="285" x2="346.729" y2="285"/>
		
			<line fill="none" stroke="#000000" stroke-width="2" stroke-linecap="round" stroke-miterlimit="10" x1="352.686" y1="285" x2="358.686" y2="285"/>
		<g>
			<polygon points="355.768,294.973 373.036,285.001 355.768,275.027 			"/>
		</g>
	</g>
</g>
<line fill="none" stroke="#000000" stroke-width="2" stroke-linecap="round" stroke-miterlimit="10" x1="25.008" y1="275" x2="25.008" y2="294"/>
<text transform="matrix(1 0 0 1 39.1829 307.75)" font-family="'MyriadPro-Regular'" font-size="9">x=0+startLeft</text>
<text transform="matrix(1 0 0 1 39.1829 318.5498)" font-family="'MyriadPro-Regular'" font-size="9">y=0+startTop</text>
<text transform="matrix(1 0 0 1 39.1829 328.75)" font-family="'MyriadPro-Regular'" font-size="9">x=startleft+largeur+marge</text>
<text transform="matrix(1 0 0 1 74.6829 340.25)" font-family="'MyriadPro-Regular'" font-size="9">x+=startleft+largeur+marge (+Y ?????)</text>
<text transform="matrix(1 0 0 1 74.6829 349.0498)" font-family="'MyriadPro-Regular'" font-size="9">y+=startleft+largeur+marge</text>
<g>
	<line fill="none" x1="25.008" y1="285" x2="25.008" y2="390.492"/>
	<g>
		
			<line fill="none" stroke="#000000" stroke-width="2" stroke-linecap="round" stroke-miterlimit="10" x1="25.008" y1="285" x2="25.008" y2="291"/>
		
			<line fill="none" stroke="#000000" stroke-width="2" stroke-linecap="round" stroke-miterlimit="10" stroke-dasharray="11.3058,11.3058" x1="25.008" y1="302.307" x2="25.008" y2="364.486"/>
		
			<line fill="none" stroke="#000000" stroke-width="2" stroke-linecap="round" stroke-miterlimit="10" x1="25.008" y1="370.141" x2="25.008" y2="376.141"/>
		<g>
			<polygon points="15.036,373.223 25.007,390.492 34.98,373.223 			"/>
		</g>
	</g>
</g>
<line fill="none" stroke="#000000" stroke-width="2" stroke-linecap="round" stroke-miterlimit="10" x1="34.508" y1="285" x2="15.508" y2="285"/>
</svg>
