<?xml version="1.0" encoding="utf-8"?>
<!-- Generator: Adobe Illustrator 16.0.0, SVG Export Plug-In . SVG Version: 6.00 Build 0)  -->
<!DOCTYPE svg PUBLIC "-//W3C//DTD SVG 1.1//EN" "http://www.w3.org/Graphics/SVG/1.1/DTD/svg11.dtd">
<svg version="1.1" id="Calque_1" xmlns="http://www.w3.org/2000/svg" xmlns:xlink="http://www.w3.org/1999/xlink" x="0px" y="0px"
	 width="500px" height="500px" viewBox="0 0 500 500" enable-background="new 0 0 500 500" xml:space="preserve">
<rect x="25.008" y="34.985" fill="#FFFFFF" stroke="#000000" stroke-width="2" stroke-linecap="round" stroke-miterlimit="10" width="31.925" height="31.924"/>
<rect x="25.008" y="88.069" fill="#FFFFFF" stroke="#000000" stroke-width="2" stroke-linecap="round" stroke-miterlimit="10" width="31.925" height="31.924"/>
<polyline fill="#FFFFFF" stroke="#000000" stroke-width="2" stroke-linecap="round" stroke-miterlimit="10" points="40.971,66.91 
	40.971,77.49 40.971,88.069 "/>
<line fill="#FFFFFF" stroke="#000000" stroke-width="2" stroke-linecap="round" stroke-miterlimit="10" x1="40.971" y1="77.49" x2="169.04" y2="77.49"/>
<rect x="25.008" y="141.153" fill="#FFFFFF" stroke="#000000" stroke-width="2" stroke-linecap="round" stroke-miterlimit="10" width="31.925" height="31.924"/>
<polyline fill="#FFFFFF" stroke="#000000" stroke-width="2" stroke-linecap="round" stroke-miterlimit="10" points="40.971,119.994 
	40.971,130.573 40.971,141.153 "/>
<line fill="#FFFFFF" stroke="#000000" stroke-width="2" stroke-linecap="round" stroke-miterlimit="10" x1="40.971" y1="130.573" x2="83.661" y2="130.573"/>
<rect x="67.698" y="141.153" fill="#FFFFFF" stroke="#000000" stroke-width="2" stroke-linecap="round" stroke-miterlimit="10" width="31.925" height="31.924"/>
<polyline fill="#FFFFFF" stroke="#000000" stroke-width="2" stroke-linecap="round" stroke-miterlimit="10" points="83.661,130.573 
	83.661,135.863 83.661,141.153 "/>
<rect x="153.078" y="141.153" fill="#FFFFFF" stroke="#000000" stroke-width="2" stroke-linecap="round" stroke-miterlimit="10" width="31.924" height="31.924"/>
<polyline fill="#FFFFFF" stroke="#000000" stroke-width="2" stroke-linecap="round" stroke-miterlimit="10" points="169.04,119.994 
	169.04,130.573 169.04,141.153 "/>
<rect x="153.078" y="88.069" fill="#FFFFFF" stroke="#000000" stroke-width="2" stroke-linecap="round" stroke-miterlimit="10" width="31.924" height="31.924"/>
<polyline fill="#FFFFFF" stroke="#000000" stroke-width="2" stroke-linecap="round" stroke-miterlimit="10" points="169.04,77.49 
	169.04,82.779 169.04,88.069 "/>
<line fill="#FFFFFF" stroke="#000000" stroke-width="2" stroke-linecap="round" stroke-miterlimit="10" x1="169.04" y1="130.573" x2="340.844" y2="130.573"/>
<rect x="324.881" y="141.153" fill="#FFFFFF" stroke="#000000" stroke-width="2" stroke-linecap="round" stroke-miterlimit="10" width="31.926" height="31.924"/>
<polyline fill="#FFFFFF" stroke="#000000" stroke-width="2" stroke-linecap="round" stroke-miterlimit="10" points="
	340.844,130.573 340.844,135.863 340.844,141.153 "/>
<rect x="67.698" y="194.237" fill="#FFFFFF" stroke="#000000" stroke-width="2" stroke-linecap="round" stroke-miterlimit="10" width="31.925" height="31.924"/>
<polyline fill="#FFFFFF" stroke="#000000" stroke-width="2" stroke-linecap="round" stroke-miterlimit="10" points="83.661,173.077 
	83.661,183.657 83.661,194.237 "/>
<line fill="#FFFFFF" stroke="#000000" stroke-width="2" stroke-linecap="round" stroke-miterlimit="10" x1="83.661" y1="183.657" x2="126.35" y2="183.657"/>
<rect x="110.388" y="194.237" fill="#FFFFFF" stroke="#000000" stroke-width="2" stroke-linecap="round" stroke-miterlimit="10" width="31.924" height="31.924"/>
<polyline fill="#FFFFFF" stroke="#000000" stroke-width="2" stroke-linecap="round" stroke-miterlimit="10" points="126.35,183.657 
	126.35,188.947 126.35,194.237 "/>
<text transform="matrix(1 0 0 1 35.0313 55.4023)" font-family="'MyriadPro-Regular'" font-size="8.9092">DIV</text>
<text transform="matrix(1 0 0 1 35.1523 107.8047)" font-family="'MyriadPro-Regular'" font-size="8.9092">DIV</text>
<text transform="matrix(1 0 0 1 35.0313 161.5078)" font-family="'MyriadPro-Regular'" font-size="8.9092">H1</text>
<text transform="matrix(1 0 0 1 78.0947 161.5078)" font-family="'MyriadPro-Regular'" font-size="8.9092">DIV</text>
<text transform="matrix(1 0 0 1 163.2217 107.8047)" font-family="'MyriadPro-Regular'" font-size="8.9092">UL</text>
<text transform="matrix(1 0 0 1 165.4541 161.5078)" font-family="'MyriadPro-Regular'" font-size="8.9092">Li</text>
<text transform="matrix(1 0 0 1 338.9912 161.5078)" font-family="'MyriadPro-Regular'" font-size="8.9092">Li</text>
<line fill="#FFFFFF" stroke="#000000" stroke-width="2" stroke-linecap="round" stroke-miterlimit="10" x1="169.04" y1="77.49" x2="385.385" y2="77.49"/>
<rect x="369.424" y="141.153" fill="#FFFFFF" stroke="#000000" stroke-width="2" stroke-linecap="round" stroke-miterlimit="10" width="31.924" height="31.924"/>
<polyline fill="#FFFFFF" stroke="#000000" stroke-width="2" stroke-linecap="round" stroke-miterlimit="10" points="
	385.385,119.994 385.385,130.573 385.385,141.153 "/>
<rect x="369.424" y="88.069" fill="#FFFFFF" stroke="#000000" stroke-width="2" stroke-linecap="round" stroke-miterlimit="10" width="31.924" height="31.924"/>
<polyline fill="#FFFFFF" stroke="#000000" stroke-width="2" stroke-linecap="round" stroke-miterlimit="10" points="385.385,77.49 
	385.385,82.779 385.385,88.069 "/>
<line fill="#FFFFFF" stroke="#000000" stroke-width="2" stroke-linecap="round" stroke-miterlimit="10" x1="385.385" y1="130.573" x2="428.076" y2="130.573"/>
<rect x="412.113" y="141.153" fill="#FFFFFF" stroke="#000000" stroke-width="2" stroke-linecap="round" stroke-miterlimit="10" width="31.924" height="31.924"/>
<polyline fill="#FFFFFF" stroke="#000000" stroke-width="2" stroke-linecap="round" stroke-miterlimit="10" points="
	428.076,130.573 428.076,135.863 428.076,141.153 "/>
<line fill="#FFFFFF" stroke="#000000" stroke-width="2" stroke-linecap="round" stroke-miterlimit="10" x1="428.076" y1="130.573" x2="470.766" y2="130.573"/>
<rect x="454.803" y="141.153" fill="#FFFFFF" stroke="#000000" stroke-width="2" stroke-linecap="round" stroke-miterlimit="10" width="31.926" height="31.924"/>
<polyline fill="#FFFFFF" stroke="#000000" stroke-width="2" stroke-linecap="round" stroke-miterlimit="10" points="
	470.766,130.573 470.766,135.863 470.766,141.153 "/>
<text transform="matrix(1 0 0 1 379.5664 107.8047)" font-family="'MyriadPro-Regular'" font-size="8.9092">DIV</text>
<text transform="matrix(1 0 0 1 374.2949 161.5078)" font-family="'MyriadPro-Regular'" font-size="8.9092">SPAN</text>
<text transform="matrix(1 0 0 1 461.4092 161.5078)" font-family="'MyriadPro-Regular'" font-size="8.9092">SPAN</text>
<text transform="matrix(1 0 0 1 417.3594 161.5078)" font-family="'MyriadPro-Regular'" font-size="8.9092">SPAN</text>
<text transform="matrix(1 0 0 1 78.0947 213.8496)" font-family="'MyriadPro-Regular'" font-size="8.9092">IMG</text>
<text transform="matrix(1 0 0 1 118.3115 213.8496)" font-family="'MyriadPro-Regular'" font-size="8.9092">IMG</text>
<rect x="153.078" y="236.741" fill="#FFFFFF" stroke="#000000" stroke-width="2" stroke-linecap="round" stroke-miterlimit="10" width="31.924" height="31.924"/>
<polyline fill="#FFFFFF" stroke="#000000" stroke-width="2" stroke-linecap="round" stroke-miterlimit="10" points="
	169.039,215.581 169.039,226.161 169.039,236.741 "/>
<rect x="153.078" y="183.657" fill="#FFFFFF" stroke="#000000" stroke-width="2" stroke-linecap="round" stroke-miterlimit="10" width="31.924" height="31.924"/>
<polyline fill="#FFFFFF" stroke="#000000" stroke-width="2" stroke-linecap="round" stroke-miterlimit="10" points="
	169.039,173.077 169.039,178.367 169.039,183.657 "/>
<line fill="#FFFFFF" stroke="#000000" stroke-width="2" stroke-linecap="round" stroke-miterlimit="10" x1="169.039" y1="226.161" x2="211.73" y2="226.161"/>
<rect x="195.767" y="236.741" fill="#FFFFFF" stroke="#000000" stroke-width="2" stroke-linecap="round" stroke-miterlimit="10" width="31.925" height="31.924"/>
<polyline fill="#FFFFFF" stroke="#000000" stroke-width="2" stroke-linecap="round" stroke-miterlimit="10" points="211.73,226.161 
	211.73,231.452 211.73,236.741 "/>
<line fill="#FFFFFF" stroke="#000000" stroke-width="2" stroke-linecap="round" stroke-miterlimit="10" x1="211.73" y1="226.161" x2="254.419" y2="226.161"/>
<rect x="238.456" y="236.741" fill="#FFFFFF" stroke="#000000" stroke-width="2" stroke-linecap="round" stroke-miterlimit="10" width="31.927" height="31.924"/>
<polyline fill="#FFFFFF" stroke="#000000" stroke-width="2" stroke-linecap="round" stroke-miterlimit="10" points="
	254.419,226.161 254.419,231.452 254.419,236.741 "/>
<line fill="#FFFFFF" stroke="#000000" stroke-width="2" stroke-linecap="round" stroke-miterlimit="10" x1="254.42" y1="226.161" x2="297.108" y2="226.161"/>
<polyline fill="#FFFFFF" stroke="#000000" stroke-width="2" stroke-linecap="round" stroke-miterlimit="10" points="
	297.108,226.161 297.108,231.452 297.108,236.741 "/>
<text transform="matrix(1 0 0 1 163.2207 203.3926)" font-family="'MyriadPro-Regular'" font-size="8.9092">UL</text>
<text transform="matrix(1 0 0 1 165.4531 257.0957)" font-family="'MyriadPro-Regular'" font-size="8.9092">Li</text>
<text transform="matrix(1 0 0 1 252.5674 257.0957)" font-family="'MyriadPro-Regular'" font-size="8.9092">Li</text>
<text transform="matrix(1 0 0 1 208.5166 257.0957)" font-family="'MyriadPro-Regular'" font-size="8.9092">Li</text>
<rect x="281.146" y="236.741" fill="#FFFFFF" stroke="#000000" stroke-width="2" stroke-linecap="round" stroke-miterlimit="10" width="31.926" height="31.924"/>
<text transform="matrix(1 0 0 1 295.2578 257.0957)" font-family="'MyriadPro-Regular'" font-size="8.9092">Li</text>
<text transform="matrix(1 0 0 1 15.876 26.2563)" font-family="'MyriadPro-Regular'" font-size="10.16">DOM/BODY</text>
<g>
	<line fill="#FFFFFF" x1="25.008" y1="285" x2="373.037" y2="285"/>
	<g>
		
			<line fill="none" stroke="#000000" stroke-width="2" stroke-linecap="round" stroke-miterlimit="10" x1="25.008" y1="285" x2="31.008" y2="285"/>
		
			<line fill="none" stroke="#000000" stroke-width="2" stroke-linecap="round" stroke-miterlimit="10" stroke-dasharray="11.914,11.914" x1="42.922" y1="285" x2="346.729" y2="285"/>
		
			<line fill="none" stroke="#000000" stroke-width="2" stroke-linecap="round" stroke-miterlimit="10" x1="352.686" y1="285" x2="358.686" y2="285"/>
		<g>
			<polygon points="355.768,294.973 373.037,285.001 355.768,275.028 			"/>
		</g>
	</g>
</g>
<line fill="#FFFFFF" stroke="#000000" stroke-width="2" stroke-linecap="round" stroke-miterlimit="10" x1="25.008" y1="275" x2="25.008" y2="294"/>
<text transform="matrix(1 0 0 1 39.1831 307.75)"><tspan x="0" y="0" font-family="'MyriadPro-Regular'" font-size="9">x=0+startLeft</tspan><tspan x="0" y="10.8" font-family="'MyriadPro-Regular'" font-size="9">y=0+startTop</tspan></text>
<text transform="matrix(1 0 0 1 39.1831 328.75)" font-family="'MyriadPro-Regular'" font-size="9">x=startleft+largeur+marge</text>
<text transform="matrix(1 0 0 1 74.6831 340.25)"><tspan x="0" y="0" font-family="'MyriadPro-Regular'" font-size="9">x+=startleft+largeur+marge (+Y ?????)</tspan><tspan x="0" y="8.8" font-family="'MyriadPro-Regular'" font-size="9">y+=startleft+largeur+marge</tspan></text>
<g>
	<line fill="#FFFFFF" x1="25.008" y1="285" x2="25.008" y2="390.492"/>
	<g>
		
			<line fill="none" stroke="#000000" stroke-width="2" stroke-linecap="round" stroke-miterlimit="10" x1="25.008" y1="285" x2="25.008" y2="291"/>
		
			<line fill="none" stroke="#000000" stroke-width="2" stroke-linecap="round" stroke-miterlimit="10" stroke-dasharray="11.3058,11.3058" x1="25.008" y1="302.306" x2="25.008" y2="364.487"/>
		
			<line fill="none" stroke="#000000" stroke-width="2" stroke-linecap="round" stroke-miterlimit="10" x1="25.008" y1="370.141" x2="25.008" y2="376.141"/>
		<g>
			<polygon points="15.036,373.223 25.007,390.492 34.98,373.223 			"/>
		</g>
	</g>
</g>
<line fill="#FFFFFF" stroke="#000000" stroke-width="2" stroke-linecap="round" stroke-miterlimit="10" x1="34.508" y1="285" x2="15.508" y2="285"/>
</svg>
